<svg width="217" height="78" viewBox="0 0 217 78" fill="none" xmlns="http://www.w3.org/2000/svg">
<g filter="url(#filter0_d)">
<mask id="path-1-inside-1" fill="white">
<path fill-rule="evenodd" clip-rule="evenodd" d="M192 0H26V43.1048L4.30481 43.1048L108.792 70.4029L213.279 43.1048L192 43.1048V0Z"/>
</mask>
<path fill-rule="evenodd" clip-rule="evenodd" d="M192 0H26V43.1048L4.30481 43.1048L108.792 70.4029L213.279 43.1048L192 43.1048V0Z" fill="#010046" fill-opacity="0.46"/>
<path d="M26 0V-4.04418C23.7665 -4.04418 21.9558 -2.23354 21.9558 0L26 0ZM192 0H196.044C196.044 -2.23354 194.234 -4.04418 192 -4.04418V0ZM26 43.1048L26 47.1489C27.0726 47.1489 28.1012 46.7229 28.8597 45.9644C29.6181 45.206 30.0442 44.1773 30.0442 43.1048H26ZM4.30481 43.1048L4.30481 39.0606C2.2705 39.0606 0.552826 40.5717 0.293602 42.5894C0.0343785 44.6071 1.3143 46.5034 3.28254 47.0176L4.30481 43.1048ZM108.792 70.4029L107.77 74.3158C108.44 74.4909 109.144 74.4909 109.814 74.3158L108.792 70.4029ZM213.279 43.1048L214.301 47.0176C216.269 46.5034 217.549 44.6072 217.29 42.5894C217.031 40.5717 215.313 39.0606 213.279 39.0606V43.1048ZM192 43.1048H187.956C187.956 45.3383 189.766 47.1489 192 47.1489V43.1048ZM26 4.04418H192V-4.04418H26V4.04418ZM30.0442 43.1048V0H21.9558V43.1048H30.0442ZM4.30481 47.1489L26 47.1489L26 39.0606L4.30481 39.0606L4.30481 47.1489ZM109.814 66.4901L5.32707 39.1919L3.28254 47.0176L107.77 74.3158L109.814 66.4901ZM212.257 39.1919L107.77 66.4901L109.814 74.3158L214.301 47.0176L212.257 39.1919ZM192 47.1489L213.279 47.1489V39.0606L192 39.0606V47.1489ZM187.956 0V43.1048H196.044V0H187.956Z" fill="#FFFEDB" mask="url(#path-1-inside-1)"/>
</g>
<defs>
<filter id="filter0_d" x="0.914809" y="0" width="215.754" height="77.1829" filterUnits="userSpaceOnUse" color-interpolation-filters="sRGB">
<feFlood flood-opacity="0" result="BackgroundImageFix"/>
<feColorMatrix in="SourceAlpha" type="matrix" values="0 0 0 0 0 0 0 0 0 0 0 0 0 0 0 0 0 0 127 0"/>
<feOffset dy="3.39"/>
<feGaussianBlur stdDeviation="1.695"/>
<feColorMatrix type="matrix" values="0 0 0 0 0 0 0 0 0 0 0 0 0 0 0 0 0 0 0.25 0"/>
<feBlend mode="normal" in2="BackgroundImageFix" result="effect1_dropShadow"/>
<feBlend mode="normal" in="SourceGraphic" in2="effect1_dropShadow" result="shape"/>
</filter>
</defs>
</svg>
