<svg width="161" height="77" viewBox="0 0 161 77" fill="none" xmlns="http://www.w3.org/2000/svg">
<path d="M47.2057 0C50.1742 10.5742 54.6906 20.4027 61.2664 29.2325C61.8695 30.0431 61.8628 30.0924 61.0073 30.3566C54.6973 32.2892 48.6487 34.889 42.6089 37.518C35.0615 40.8032 27.5453 44.1689 19.6293 46.5135C17.6235 47.1069 15.5909 47.6018 13.5382 48.0094C12.9597 48.1236 12.6694 48.0542 12.6269 47.3577C12.2383 40.8054 10.5519 34.5867 7.85588 28.6166C5.70937 23.867 3.05358 19.395 0.516179 14.8581C0.446936 14.7372 0.373227 14.6185 0.306218 14.4953C-0.171779 13.6175 -0.151676 13.5794 0.795383 13.3577C15.964 9.83298 30.994 5.82678 45.6355 0.468024C45.9996 0.335902 46.348 0.156754 46.7032 0C46.8707 0 47.0382 0 47.2057 0ZM13.8353 45.9917C14.3848 45.8977 14.9343 45.8059 15.4815 45.7051C22.7028 44.3794 29.6114 42.0259 36.4061 39.3028C44.0183 36.2528 51.4653 32.7796 59.2897 30.276C60.0044 30.0476 59.8235 29.7587 59.4974 29.3355C57.4871 26.7109 55.7516 23.9073 54.2104 20.9827C50.9649 14.82 48.6129 8.30798 46.7657 1.60561C46.5535 0.835277 46.2877 0.72107 45.5551 0.989792C40.42 2.86637 35.2491 4.64889 30.0314 6.28137C21.2219 9.04025 12.3053 11.4364 3.39086 13.828C2.28521 14.1236 2.28075 14.1258 2.85926 15.1044C6.24544 20.8461 8.7337 26.9662 10.5385 33.3752C11.6307 37.2516 12.4661 41.1861 13.1071 45.1632C13.1719 45.5752 13.2077 46.0455 13.8353 45.9917Z" fill="white"/>
<path d="M20.6811 62.0434C20.6119 59.9205 21.0497 57.9834 22.7249 56.5032C23.1091 56.1628 23.0086 55.9165 22.6065 55.6567C21.2016 54.7543 21.2083 54.3758 22.6088 53.4084C22.7919 53.2808 22.9684 53.133 23.1694 53.0434C24.208 52.5888 24.6458 51.8633 24.3912 50.7011C24.2214 49.9263 24.4805 49.288 25.2601 48.8984C25.9212 48.567 26.3925 48.0004 26.8169 47.4025C27.1095 46.9927 27.3887 46.5717 27.7126 46.1888C28.6172 45.1184 29.7921 45.0087 30.8911 45.8663C32.5618 47.1719 32.9728 47.0756 33.8774 45.1363C34.0427 44.7847 34.17 44.4085 34.2616 44.0301C34.543 42.8857 35.3539 42.5095 36.4238 42.4289C37.8957 42.317 39.2203 42.7648 40.5247 43.3739C41.2774 43.7255 42.019 44.1375 42.8968 44.1152C43.7657 44.0928 44.0561 43.8464 44.1142 42.982C44.1544 42.3976 44.1007 41.7997 44.1968 41.2242C44.4626 39.623 45.3627 38.4966 46.9263 38.0353C48.6551 37.527 50.1047 38.154 51.3332 39.3745C51.608 39.6477 51.8336 39.9768 52.0368 40.3105C52.8097 41.5892 52.4858 42.7492 51.1836 43.4971C50.1383 44.0972 48.9991 44.1017 47.8488 44.0569C47.516 44.0435 47.1698 44.0144 46.8526 44.0883C46.2473 44.2294 45.9368 44.6302 46.1199 45.2707C46.3925 46.2201 46.9531 47.0308 47.4892 47.8414C47.7438 48.2244 48.1481 48.1258 48.5546 48.0362C49.6647 47.7944 50.7123 48.558 50.7681 49.6172C50.786 49.9688 50.7905 50.3562 50.2343 50.1256C49.9864 50.0225 49.7005 49.7762 49.495 50.1054C49.3029 50.4122 49.4257 50.7638 49.6223 51.0526C49.8211 51.346 50.0913 51.552 50.4711 51.4468C50.6542 51.3953 50.8217 51.2788 50.9915 51.1848C51.9743 50.6406 52.7918 50.7436 53.5311 51.6147C54.7775 53.0882 55.1706 54.8327 54.9182 56.7182C54.8356 57.3363 54.5296 57.8871 53.9667 58.2365C53.3837 58.5992 53.3524 59.0337 53.75 59.5666C54.2169 60.1959 54.3799 60.9326 54.4112 61.6985C54.4469 62.6032 54.1007 62.966 53.1894 63.0309C52.0167 63.1138 51.8648 63.3646 52.3942 64.4215C52.669 64.9702 53.0085 65.4875 53.2921 66.0316C53.8885 67.1737 53.8215 68.3023 53.109 69.366C51.9564 71.0836 50.3281 72.0644 48.3067 72.4339C47.5673 72.5683 46.8302 72.7362 46.1088 72.9423C44.7686 73.3252 43.7166 74.0843 43.0197 75.3361C42.3898 76.4692 41.713 76.6484 40.5403 76.0818C40.1026 75.8691 39.6893 75.8982 39.2515 76.0751C38.5814 76.3461 37.9315 76.6596 37.2234 76.8522C35.9502 77.1993 34.858 76.9261 34.0829 75.887C33.08 74.5412 31.7421 74.0194 30.1517 74.0843C29.0841 74.1269 28.3671 73.8559 27.9538 72.7542C27.4535 71.424 26.4752 70.5954 25.097 70.0244C22.104 68.7816 21.0005 66.1727 20.6901 63.1317C20.6476 62.7734 20.6811 62.4061 20.6811 62.0434ZM49.8792 59.4256C49.8702 56.2009 47.9582 52.9673 44.6301 50.4704C43.2118 49.4067 41.5053 49.2321 39.8703 48.7864C37.0805 48.0228 34.4805 48.4908 32.0615 49.8837C27.8734 52.291 26.0977 56.1404 25.8163 60.8364C25.6688 63.3064 26.8683 65.2927 27.9873 67.3193C28.3447 67.9664 28.8406 68.4658 29.4571 68.8846C30.1004 69.3235 30.6632 69.8766 31.2842 70.3513C31.9677 70.8776 32.6445 71.5897 33.52 71.5763C35.0344 71.5561 36.2875 72.5101 37.8779 72.4115C39.2582 72.3264 40.5649 72.3466 41.7644 71.5897C41.9788 71.4531 42.1955 71.3389 42.4568 71.3165C44.1298 71.1732 45.432 70.105 46.4282 69.0324C48.6194 66.6743 49.8322 63.7587 49.8792 59.4256ZM42.1865 74.8099C42.363 74.7427 42.4456 74.727 42.5104 74.6845C42.602 74.624 42.7159 74.5613 42.765 74.4717C43.4686 73.1662 44.6882 72.8415 46.0261 72.5952C47.8689 72.257 49.5709 71.5785 50.6967 69.9303C51.3623 68.954 51.4762 67.9194 51.0518 66.8221C50.882 66.3855 50.5805 66.1257 50.0846 66.213C49.6066 66.2959 49.4749 66.6587 49.4548 67.0774C49.4369 67.4693 49.4369 67.8612 49.4458 68.2531C49.4637 69.2496 49.0281 70.0535 48.3089 70.6783C47.6567 71.2471 46.8861 71.6479 46.0708 71.9614C44.5631 72.5369 42.9862 73.0318 42.1865 74.8099ZM28.778 51.3348C29.8077 50.2174 30.9826 49.3127 32.3854 48.6946C34.686 47.678 37.0067 47.0509 39.495 47.9982C39.7519 48.0967 40.0378 48.1191 40.3103 48.1818C40.5247 48.2311 40.7682 48.3542 40.891 48.0654C40.9982 47.8168 40.8151 47.6354 40.6476 47.4898C39.9283 46.8606 39.1265 46.35 38.271 45.9357C36.5891 45.1184 36.1602 45.2303 35.0121 46.7016C34.3532 47.5458 33.5357 48.0721 32.4613 48.3072C30.7615 48.6767 29.5241 49.7135 28.778 51.3348ZM23.9936 68.3359C24.7128 68.8935 25.3896 69.1533 26.0553 69.4198C26.875 69.7467 27.4669 70.2954 27.831 71.0903C28.0052 71.471 28.1593 71.8584 28.3224 72.2436C28.3872 72.3959 28.4452 72.5862 28.6463 72.5795C28.8875 72.5705 28.9344 72.3466 28.9969 72.1674C29.0751 71.9413 28.9947 71.7285 28.9188 71.5158C28.4475 70.1789 27.5049 69.3459 26.1692 68.9428C25.5058 68.7435 24.8379 68.5711 23.9936 68.3359Z" fill="white"/>
<path d="M121.974 59.8287C119.877 59.8332 119.814 59.8511 119.229 57.8715C118.423 55.1462 115.432 53.1509 112.481 53.1308C109.504 53.1106 106.754 55.0499 105.798 57.8267C105.744 57.9857 105.693 58.1469 105.644 58.3059C105.164 59.8309 105.164 59.8309 103.513 59.8309C102.787 59.8309 102.061 59.8175 101.335 59.8309C100.793 59.8399 100.583 59.6204 100.656 59.0628C101.331 53.9795 105.128 49.147 111.233 48.6297C116.703 48.1662 121.516 50.9519 123.466 55.8158C123.886 56.8615 124.074 57.9633 124.248 59.0718C124.337 59.6406 124.098 59.8421 123.564 59.8309C123.035 59.8197 122.506 59.8287 121.974 59.8287Z" fill="white"/>
<path d="M103.013 61.0558C103.707 61.0894 104.509 60.9192 105.068 61.2126C105.675 61.5328 105.521 62.4577 105.709 63.1116C106.388 65.4785 108.925 67.5477 111.514 67.7896C113.727 67.9978 115.702 67.4537 117.422 65.9824C118.586 64.9859 119.229 63.7386 119.517 62.2629C119.747 61.0872 119.763 61.0894 120.98 61.0872C121.818 61.0872 122.655 61.1118 123.493 61.0805C124.19 61.0558 124.322 61.3649 124.263 62.0098C123.667 68.5935 117.149 73.5984 110.134 72.2212C105.012 71.2158 101.3 67.2387 100.645 62.0232C100.567 61.3962 100.717 61.0469 101.42 61.085C101.95 61.1118 102.481 61.0894 103.011 61.0894C103.013 61.0805 103.013 61.067 103.013 61.0558Z" fill="white"/>
<path d="M45.8854 37.0276C47.5964 36.5865 49.3409 36.6335 51.0563 36.5932C55.4364 36.4879 59.8211 36.4454 64.1967 36.7432C71.9206 37.2695 79.5395 38.4474 87.011 40.5233C87.9938 40.7965 88.0095 40.7763 88.1748 39.7865C89.1062 34.2217 89.41 28.6166 89.1687 22.9892C89.0213 19.554 88.5768 16.1435 88.005 12.7508C87.9112 12.1977 87.5918 11.9604 87.0914 11.8036C79.7071 9.51275 72.278 7.40552 64.6479 6.09103C64.5742 6.07759 64.5094 6.02832 64.3397 5.95219C65.1192 5.66779 65.796 5.94771 66.446 6.02161C73.9934 6.89047 81.4381 8.27663 88.7198 10.4891C89.296 10.6638 89.5864 10.9056 89.6802 11.5506C90.3637 16.2689 90.5625 20.9961 90.3548 25.7637C90.118 31.2456 89.5105 36.6805 88.6863 42.0975C88.5768 42.8208 88.2753 42.8119 87.7347 42.6574C82.9324 41.2869 78.0743 40.1493 73.1558 39.2849C69.0929 38.5705 65.0053 38.0465 60.8977 37.6502C56.6716 37.2404 52.4344 37.1956 48.1995 37.0545C47.4266 37.0276 46.6493 37.1642 45.8854 37.0276Z" fill="white"/>
<path d="M69.0683 67.3148C72.7783 67.3148 76.4906 67.3327 80.2007 67.3014C80.9825 67.2947 81.3242 67.5119 81.2706 68.3405C81.2125 69.2317 81.2281 70.1319 81.2661 71.0255C81.2974 71.7309 80.9981 71.9436 80.3258 71.9391C77.0334 71.9167 73.741 71.9302 70.4487 71.9302C66.236 71.9302 62.0212 71.9122 57.8086 71.9458C56.9821 71.9525 56.6314 71.7219 56.6962 70.8575C56.7587 70.0222 56.7543 69.178 56.6962 68.3427C56.6381 67.5119 56.9866 67.2969 57.7661 67.3036C61.5342 67.3305 65.3001 67.3148 69.0683 67.3148Z" fill="white"/>
<path d="M127.909 60.4915C127.909 57.0228 127.931 53.554 127.893 50.0853C127.884 49.2388 128.146 48.9231 128.994 48.9858C129.828 49.0462 130.67 49.0373 131.505 48.988C132.264 48.9432 132.537 49.2164 132.526 49.9912C132.49 52.5351 132.512 55.0813 132.512 57.6274C132.512 62.0188 132.515 66.4101 132.51 70.8015C132.51 71.9099 132.494 71.9211 131.384 71.9256C130.576 71.9301 129.763 71.8831 128.959 71.9391C128.163 71.9928 127.889 71.7129 127.898 70.8978C127.929 67.429 127.909 63.9603 127.909 60.4915Z" fill="white"/>
<path d="M152.287 60.5475C152.287 63.958 152.289 67.3685 152.287 70.7791C152.287 71.9032 152.264 71.9211 151.181 71.9256C150.372 71.9301 149.559 71.8808 148.755 71.939C147.924 71.9995 147.652 71.6434 147.719 70.8642C147.757 70.4208 147.726 69.9707 147.726 69.5228C147.726 63.0936 147.726 56.6622 147.726 50.2331C147.726 49.0171 147.743 49.0014 148.923 48.9992C149.649 48.9969 150.372 48.9969 151.098 48.9992C152.282 49.0037 152.287 49.0037 152.287 50.2308C152.289 53.6705 152.287 57.1101 152.287 60.5475Z" fill="white"/>
<path d="M136.184 62.8585C133.779 62.8585 133.779 62.8585 133.779 60.4109C133.779 58.2455 133.779 58.2455 135.956 58.2455C136.403 58.2455 136.85 58.2477 137.297 58.2432C138.603 58.2298 139.582 57.2915 139.629 56.0106C139.673 54.7655 138.711 53.7063 137.406 53.6391C136.488 53.5899 135.563 53.5966 134.643 53.6302C133.982 53.6548 133.75 53.3816 133.772 52.7389C133.806 51.7334 133.781 50.7235 133.785 49.7158C133.785 49.353 133.85 49.0149 134.31 49.0171C136.283 49.0261 138.273 48.7999 140.156 49.6912C143.216 51.14 144.806 54.2079 144.105 57.4102C143.397 60.6371 140.62 62.854 137.272 62.8607C136.91 62.8585 136.548 62.8585 136.184 62.8585Z" fill="white"/>
<path d="M10.2769 49.0014C12.9551 49.0014 15.631 49.0216 18.3091 48.988C19.0417 48.979 19.3097 49.2298 19.274 49.9599C19.2293 50.9094 19.2472 51.8611 19.2673 52.8106C19.2785 53.3637 19.0886 53.6257 18.4967 53.6257C13.002 53.6145 7.50948 53.6167 2.01475 53.6234C1.48762 53.6234 1.25309 53.4129 1.26202 52.8755C1.27766 51.87 1.28882 50.8623 1.25755 49.8569C1.23745 49.1895 1.53229 48.988 2.16217 48.9925C4.8671 49.0126 7.57202 49.0014 10.2769 49.0014Z" fill="white"/>
<path d="M148.407 44.1645C140.171 45.1632 132.273 46.7016 124.735 49.7875C126.055 48.8335 127.5 48.1393 128.954 47.4563C133.64 45.255 138.586 43.9584 143.685 43.1859C143.969 43.1433 144.42 43.2575 144.511 42.944C144.616 42.5902 144.176 42.4088 143.949 42.1871C141.684 39.9881 139.361 37.8495 137.312 35.4377C135.568 33.382 134.018 31.2031 132.948 28.7107C132.803 28.3748 132.716 28.0277 132.182 28.2024C128.595 29.3713 124.86 29.9177 121.199 30.7776C116.006 31.9981 111.483 34.486 107.462 37.9592C106.98 38.3757 106.832 38.7967 106.966 39.4237C107.549 42.1222 108.38 44.7153 109.966 47.0151C110.022 47.098 110.046 47.201 110.143 47.4339C109.631 47.1898 109.381 46.8606 109.122 46.5561C107.04 44.1085 106.301 41.1525 105.919 38.06C105.854 37.5382 106.2 37.312 106.513 37.0388C109.995 34.0068 114.069 32.1257 118.458 30.8515C121.404 29.9961 124.429 29.4631 127.4 28.7062C129.108 28.2718 130.786 27.7679 132.343 26.9147C132.651 26.7468 132.943 26.5811 133.091 27.1208C133.978 30.4081 136.169 32.8445 138.431 35.2183C141.136 38.0555 144.179 40.5188 147.16 43.0493C147.536 43.3717 147.895 43.7054 148.407 44.1645Z" fill="white"/>
<path d="M56.7096 57.5289C56.7096 55.0432 56.7409 52.5553 56.6917 50.0696C56.6738 49.2052 56.9799 48.9298 57.8063 48.9857C58.6662 49.044 59.5329 49.0193 60.3973 48.9925C60.9847 48.9745 61.2751 49.1761 61.2729 49.8031C61.264 54.9446 61.264 60.0839 61.2729 65.2255C61.2751 65.8436 61.0116 66.063 60.4107 66.0451C59.4636 66.016 58.5144 66.0115 57.5695 66.0451C56.9106 66.0697 56.6939 65.7965 56.6984 65.1561C56.723 62.6144 56.7096 60.0728 56.7096 57.5289Z" fill="white"/>
<path d="M66.7609 57.5132C66.7609 54.9984 66.7788 52.4836 66.7498 49.9688C66.7408 49.2522 66.9664 48.9432 67.708 48.9902C68.4585 49.0373 69.2112 48.9992 69.964 48.9992C71.3198 48.9992 71.322 49.0014 71.322 50.3249C71.3243 53.1756 71.322 56.024 71.322 58.8747C71.322 60.9416 71.3019 63.0108 71.331 65.0777C71.3421 65.7965 71.0987 66.0944 70.3616 66.0518C69.5552 66.0048 68.7466 66.0429 67.9381 66.0406C66.7654 66.0361 66.7609 66.0361 66.7587 64.8896C66.7587 62.4308 66.7609 59.972 66.7609 57.5132Z" fill="white"/>
<path d="M81.2572 57.6184C81.2572 60.1041 81.2371 62.592 81.2706 65.0777C81.2796 65.8032 81.045 66.0989 80.3079 66.0496C79.6423 66.0048 78.97 66.0406 78.3021 66.0406C76.6961 66.0406 76.6961 66.0406 76.6961 64.4686C76.6961 60.3348 76.6961 56.1987 76.6961 52.0649C76.6961 51.3662 76.7252 50.6675 76.6894 49.9688C76.6537 49.2545 76.9195 48.9499 77.6588 48.9902C78.521 49.035 79.3877 49.0373 80.2499 48.9902C81.0026 48.9477 81.284 49.2142 81.2729 49.9912C81.2349 52.5329 81.2572 55.0745 81.2572 57.6184Z" fill="white"/>
<path d="M62.9504 40.7763C63.1782 42.8858 63.4552 44.9795 63.5133 47.0912C63.5445 48.1975 63.5289 48.1706 64.5832 48.0273C70.4085 47.2346 76.1869 46.1015 82.0368 45.5035C87.5985 44.9348 93.1692 44.7892 98.713 45.7745C99.7628 45.9604 99.7472 45.938 99.9326 44.8273C101.242 37.0187 99.8656 29.5863 96.8435 22.3756C96.6469 21.9053 96.3432 21.6791 95.8719 21.5761C94.7662 21.3343 93.6628 21.0678 92.5683 20.7386C93.3836 20.4676 94.181 20.8237 94.9896 20.7901C95.4854 20.7699 95.9858 20.9043 96.4839 20.9446C97.0512 20.9894 97.2835 21.3746 97.4734 21.8359C99.2849 26.2496 100.636 30.7888 101.233 35.5407C101.686 39.1684 101.706 42.7872 101.208 46.4082C101.125 47.0106 100.922 47.2838 100.234 47.192C95.6619 46.5762 91.0718 46.471 86.4616 46.6882C79.6602 47.0084 72.9124 47.8123 66.1713 48.7237C65.012 48.8805 63.8483 49.0037 62.6868 49.1604C62.2669 49.2164 62.0257 49.1425 62.1061 48.6476C62.5215 46.1328 62.6354 43.5911 62.7293 41.0495C62.7337 40.9465 62.7427 40.8345 62.9504 40.7763Z" fill="white"/>
<path d="M19.2628 63.5706C19.2628 66.0317 19.2449 68.4927 19.274 70.9538C19.2829 71.6659 19.0685 71.9771 18.3202 71.9391C17.3731 71.8898 16.4239 71.9122 15.4746 71.9323C14.9273 71.9435 14.6571 71.7666 14.6571 71.1687C14.6682 66.0518 14.6682 60.9327 14.6571 55.8157C14.6548 55.2223 14.9251 55.0342 15.4746 55.0454C16.4507 55.0656 17.429 55.0768 18.4029 55.0409C19.0729 55.0163 19.2717 55.3074 19.2673 55.9389C19.2516 58.4806 19.2628 61.0267 19.2628 63.5706Z" fill="white"/>
<path d="M94.1541 63.5706C94.1541 66.0317 94.1363 68.4927 94.1675 70.9538C94.1765 71.6636 93.9732 71.9794 93.2205 71.9391C92.2757 71.8876 91.3241 71.9122 90.3748 71.9323C89.8298 71.9435 89.5506 71.7644 89.5529 71.1665C89.564 66.0496 89.564 60.9304 89.5529 55.8135C89.5506 55.2223 89.8164 55.0297 90.3681 55.0409C91.3442 55.0611 92.3226 55.0723 93.2964 55.0365C93.9621 55.0118 94.1698 55.3007 94.1631 55.9344C94.1407 58.4806 94.1541 61.0267 94.1541 63.5706Z" fill="white"/>
<path d="M5.87217 63.4721C5.87217 65.9331 5.8409 68.3942 5.89004 70.853C5.90791 71.7129 5.6086 71.9973 4.77546 71.9413C3.94231 71.8831 3.10024 71.8898 2.26709 71.9391C1.49649 71.9861 1.24632 71.6838 1.25079 70.9246C1.27536 66.4504 1.26196 61.9762 1.26196 57.5042C1.26196 56.9444 1.27983 56.3846 1.25973 55.827C1.23962 55.247 1.50766 55.032 2.0683 55.0432C3.0444 55.0634 4.02049 55.0746 4.99659 55.0387C5.64881 55.0163 5.88334 55.2739 5.87887 55.9233C5.85877 58.438 5.87217 60.9551 5.87217 63.4721Z" fill="white"/>
<path d="M91.9294 53.6212C89.8924 53.6212 87.8553 53.5988 85.8182 53.6324C85.099 53.6436 84.8042 53.413 84.8399 52.6695C84.8868 51.72 84.8645 50.7683 84.8466 49.8166C84.8355 49.2679 85.0208 48.9947 85.615 48.9947C89.8276 49.0059 94.0402 49.0082 98.2551 48.9947C98.8559 48.9925 99.0257 49.2836 99.0145 49.8233C98.9966 50.8019 98.9832 51.7827 99.019 52.7591C99.0435 53.4286 98.7509 53.6324 98.1211 53.6257C96.0594 53.6055 93.9955 53.6212 91.9294 53.6212Z" fill="white"/>
<path d="M78.1413 20.4901C78.2195 19.0726 78.2284 17.7536 78.3847 16.4503C78.5143 15.3709 78.3691 14.3341 78.2329 13.2816C78.2083 13.0868 78.1636 12.8964 78.1502 12.7016C78.0586 11.4073 78.1055 11.4588 79.372 11.555C81.4515 11.7118 83.3814 12.4866 85.4006 12.8651C86.0171 12.9815 85.9881 13.4003 85.9456 13.8056C85.7468 15.7897 85.863 17.7692 85.9568 19.7511C85.9858 20.3647 86.0193 20.9782 86.0729 21.5918C86.1109 22.0151 86.0171 22.2211 85.5257 22.1427C83.4484 21.8113 81.3644 21.8001 79.2737 22.0375C78.2061 22.1584 78.1457 22.0643 78.139 20.9715C78.1413 20.7767 78.1413 20.5796 78.1413 20.4901ZM78.8114 18.3694C78.7287 19.3301 78.7846 20.0959 78.8471 20.8707C78.8962 21.4619 79.1687 21.612 79.7093 21.6053C81.4381 21.5851 83.167 21.5851 84.8936 21.6165C85.4833 21.6276 85.6285 21.4664 85.586 20.8439C85.4453 18.6739 85.1393 16.5018 85.4833 14.3251C85.5838 13.6936 85.3336 13.416 84.7238 13.2883C82.8967 12.9143 81.0763 12.5135 79.2626 12.0835C78.7756 11.9671 78.6818 12.097 78.6974 12.5516C78.7354 13.8369 78.7444 15.1223 78.7555 16.4077C78.7645 17.4804 78.7578 17.4804 79.8701 17.3572C78.8136 16.6563 79.1866 15.5971 79.1643 14.6565C79.1487 13.9803 79.544 13.772 80.1672 14.0094C80.7926 14.2467 81.418 14.4864 82.039 14.7304C82.3182 14.8402 82.5013 14.9029 82.6979 14.5289C82.9905 13.9758 83.6271 14.1549 84.1163 14.1101C84.4826 14.0766 84.802 14.3498 84.8511 14.7752C84.9472 15.6038 85.0365 16.4346 85.108 17.2676C85.1236 17.4445 85.1214 17.6797 84.7819 17.664C84.563 16.9362 84.6211 16.0853 83.9845 15.4582C83.9063 15.5814 83.8304 15.6463 83.8259 15.718C83.703 17.7021 82.4254 18.6471 80.7167 19.2092C79.5328 19.601 79.5351 19.6033 78.8114 18.3694Z" fill="white"/>
<path d="M157.352 53.619C156.405 53.619 155.456 53.6055 154.509 53.6257C153.948 53.6369 153.692 53.4264 153.705 52.8419C153.73 51.8073 153.721 50.775 153.709 49.7404C153.703 49.2052 153.946 48.997 154.471 48.9992C156.394 49.0126 158.317 49.0126 160.241 48.9992C160.768 48.997 161.004 49.2075 160.998 49.7427C160.982 50.8041 160.984 51.8656 160.996 52.9292C161 53.4331 160.759 53.6257 160.276 53.6212C159.302 53.61 158.329 53.6167 157.352 53.619Z" fill="white"/>
<path d="M132.253 29.9378C132.03 29.5907 131.755 29.6758 131.46 29.8303C130.618 30.267 129.772 30.6992 128.925 31.1269C128.195 31.4964 128.677 32.0339 128.691 32.5198C129.553 32.3519 130.196 31.8301 130.92 31.4651C131.835 31.0038 132.253 31.1493 132.771 32.0025C132.946 32.2892 133.133 32.578 133.243 32.8893C133.395 33.3305 133.973 33.7806 133.488 34.2486C132.999 34.7189 132.528 35.4242 131.641 35.0548C131.617 35.0436 131.599 35.0122 131.574 35.0077C131.226 34.9338 131.44 35.628 131.045 35.4242C130.824 35.31 130.886 34.8644 130.522 34.8443C130.122 34.8219 129.957 34.6203 129.879 34.224C129.781 33.7313 129.332 33.4805 128.959 33.1289C128.699 33.4939 129.001 33.8388 128.869 34.1993C128.351 33.1871 127.976 32.119 127.672 31.0239C127.596 30.753 127.824 30.7127 128.023 30.6723C129.294 30.4215 130.473 29.9289 131.617 29.3332C132.213 29.0219 132.26 29.4765 132.354 29.8639C132.318 29.8863 132.287 29.911 132.253 29.9378Z" fill="white"/>
<path d="M128.369 42.0303C128.329 42.3394 128.123 42.4961 127.862 42.5163C126.792 42.6014 125.831 43.1052 124.784 43.2799C123.837 43.4367 122.997 43.8576 122.244 44.4824C120.285 46.1015 117.969 47.089 115.686 48.1303C115.454 48.2356 115.11 48.3632 114.998 48.1281C114.846 47.8079 115.217 47.6713 115.452 47.5414C117.614 46.3277 119.747 45.0535 121.956 43.9315C123.741 43.0246 125.606 42.2655 127.574 41.8176C127.855 41.7504 128.19 41.6541 128.369 42.0303Z" fill="white"/>
<path d="M129.758 43.8733C129.521 44.4399 129.052 44.6683 128.568 44.8698C128.208 45.0176 127.784 45.0691 127.482 45.2908C125.168 46.9905 122.347 47.7071 119.95 49.2388C119.832 49.3127 119.711 49.3843 119.591 49.4515C119.387 49.568 119.16 49.662 119.001 49.4179C118.858 49.1985 119.075 49.044 119.207 48.9298C120.084 48.1751 121.069 47.5794 122.195 47.3309C123.442 47.0532 124.592 46.6255 125.577 45.7947C126.79 44.7713 128.353 44.5071 129.758 43.8733Z" fill="white"/>
<path d="M132.351 29.8595C133.028 31.1426 133.696 32.4302 134.384 33.7089C134.565 34.0448 134.471 34.28 134.225 34.524C133.133 35.6012 131.829 36.3334 130.426 36.9179C130.138 37.0366 129.93 36.9851 129.812 36.7029C129.642 36.3021 129.356 35.9416 129.374 35.4511C130.587 36.4275 130.587 36.4275 132.066 35.6079C132.211 35.5273 132.365 35.4579 132.512 35.3795C133.964 34.5957 134.112 34.0672 133.428 32.6072C133.015 31.7293 132.378 30.9433 132.258 29.9378C132.287 29.911 132.318 29.8863 132.351 29.8595Z" fill="white"/>
<path d="M35.8989 7.22415C35.8363 6.93079 36.1133 6.8457 36.3814 6.74493C38.9835 5.76633 41.5701 4.74295 44.1142 3.6188C44.5319 3.43293 44.7374 3.50683 44.8356 3.93903C45.4722 6.72701 46.4438 9.4008 47.6165 12.0029C47.7818 12.3679 47.6321 12.5919 47.3641 12.7867C45.0947 14.4438 42.9817 16.3316 40.3751 17.4938C39.801 17.7491 39.5151 17.7043 39.3364 17.0795C38.8852 15.4963 38.3871 13.9243 37.9471 12.3366C37.5942 11.0646 37.1855 9.82851 36.4618 8.70884C36.1915 8.28784 35.9771 7.82653 35.8989 7.22415ZM46.9598 12.0029C46.9107 11.8551 46.8593 11.6648 46.7856 11.4856C45.8899 9.29107 44.8915 7.1301 44.5095 4.76311C44.4202 4.20999 44.1164 4.33987 43.7903 4.46079C41.5745 5.29159 39.571 6.62177 37.2636 7.23983C36.9018 7.33612 36.9018 7.58021 37.0135 7.89595C37.9873 10.6302 38.9545 13.3644 39.9083 16.1054C40.0936 16.6384 40.3349 16.7167 40.8285 16.4368C42.7874 15.3328 44.7887 14.3005 46.4684 12.7688C46.694 12.5628 46.9866 12.415 46.9598 12.0029Z" fill="white"/>
<path d="M38.6932 24.494C38.6373 24.8859 38.3269 25.0225 37.9583 25.1389C33.3191 26.6057 28.6888 28.1106 24.083 29.6714C20.8822 30.7552 17.7909 32.2242 14.7375 33.7179C14.5186 33.8254 14.3064 34.0493 14.092 33.7336C13.8597 33.3909 14.1233 33.2028 14.3623 33.0685C15.6265 32.3519 16.9421 31.7428 18.289 31.2076C20.3126 30.4059 22.3184 29.5684 24.2327 28.5271C25.2311 27.9851 26.3122 27.7366 27.4044 27.5238C31.0095 26.8184 34.3912 25.4614 37.7394 24.0036C38.2956 23.7617 38.7133 23.97 38.6932 24.494Z" fill="white"/>
<path d="M37.0023 28.9145C36.8571 29.4318 36.4193 29.7005 35.9547 29.8819C34.2683 30.5447 32.6132 31.2949 30.8531 31.7585C29.236 32.1839 27.6211 32.6273 25.9994 33.0371C24.6637 33.373 23.395 33.8455 22.2402 34.6136C21.2329 35.2854 20.1339 35.7445 18.9367 35.9751C17.974 36.161 17.0694 36.5417 16.1625 36.9022C16.0039 36.9649 15.8208 37.0388 15.7091 36.8664C15.593 36.6873 15.7538 36.5551 15.8789 36.4476C16.4373 35.9617 17.0873 35.6146 17.802 35.469C19.4393 35.1399 20.9246 34.4412 22.381 33.6686C23.4241 33.1133 24.5163 32.7102 25.6689 32.4571C29.2002 31.6778 32.535 30.3678 35.7492 28.7241C35.9972 28.5965 36.2384 28.4487 36.5355 28.4868C36.7722 28.5204 36.9599 28.6099 37.0023 28.9145Z" fill="white"/>
<path d="M17.0493 39.7104C17.2123 39.3297 17.5295 39.2468 17.8109 39.1617C20.7772 38.2727 23.5893 36.9605 26.502 35.9348C28.5815 35.2026 30.6252 34.4031 32.64 33.5253C33.3592 33.2118 33.9534 33.3976 34.7351 33.747C33.4128 34.5755 32.095 35.1085 30.7012 35.2921C29.093 35.5026 27.6478 36.0244 26.2116 36.7679C23.5268 38.1563 20.6677 39.1125 17.7238 39.7955C17.5161 39.8425 17.286 39.9164 17.0493 39.7104Z" fill="white"/>
<path d="M48.6305 60.1198C48.6238 63.3892 47.5472 65.866 45.7201 67.9329C44.7306 69.0526 43.3525 69.8498 41.7822 70.0916C41.5254 70.1319 41.2774 70.179 41.0876 70.3469C39.1108 72.1137 37.0402 71.4263 34.9697 70.5798C34.6771 70.4589 34.3889 70.3984 34.0829 70.3805C32.1843 70.2708 30.6454 69.3952 29.2605 68.1479C28.3939 67.3663 28.3425 66.2041 27.7975 65.2681C26.1937 62.5204 26.4216 59.5846 27.2815 56.6914C27.7796 55.0118 28.778 53.6078 30.2009 52.4814C30.8665 51.9551 31.2172 51.0594 32.0928 50.6877C32.4032 50.5555 32.6847 50.3898 33.0264 50.3898C33.3682 50.3898 33.692 50.3249 33.9936 50.1614C36.7097 48.6745 39.3543 49.0731 42.0458 50.3204C44.7172 51.5588 46.7141 53.4085 47.8287 56.1427C48.4005 57.5356 48.6618 59.018 48.6305 60.1198ZM36.8169 61.8038C37.3753 62.4644 37.5026 63.3176 37.784 64.0946C37.9605 64.5806 38.1548 64.6164 38.5747 64.435C39.017 64.2424 38.9813 64.0409 38.749 63.6826C38.4631 63.2392 38.3045 62.7309 38.1772 62.2113C37.9114 61.1365 37.7193 61.0894 36.8191 61.8105C36.3322 61.871 35.843 61.9874 35.738 62.5428C35.642 63.0511 35.9301 63.3086 36.4327 63.4967C36.8928 63.6669 36.7387 64.1372 36.5712 64.4932C36.493 64.659 36.1155 64.7664 36.4841 64.9837C36.7186 65.1225 37.0737 65.118 37.1229 64.8448C37.2279 64.2693 37.5026 63.5594 37.0536 63.1205C36.5868 62.6615 36.6069 62.2942 36.8169 61.8038ZM41.0853 60.1489C40.8329 60.2027 40.5113 60.2788 40.1852 60.3393C39.5106 60.4624 39.2917 60.767 39.6379 61.4388C39.9306 62.0053 40.136 62.6189 40.3661 63.2191C40.4175 63.3534 40.4666 63.555 40.6051 63.499C41.235 63.2437 42.0279 63.2862 42.459 62.6637C42.774 62.2113 42.7159 61.7321 42.0994 61.5373C41.8046 61.4432 41.6683 61.3828 41.8291 61.0357C42.1351 60.3684 41.7264 60.1982 41.0853 60.1489ZM45.5146 61.385C44.9361 60.6326 44.5184 59.7346 43.7903 59.0807C43.6205 58.9285 43.3592 59.0315 43.1648 59.1524C42.9258 59.3002 43.0733 59.4905 43.1224 59.6697C43.3592 60.5386 43.5982 61.4007 44.5251 61.8284C44.8311 61.9695 45.0612 61.8239 45.3069 61.7165C45.432 61.6605 45.5481 61.5731 45.5146 61.385ZM33.4061 66.9409C32.4256 66.1974 32.2871 65.1561 31.8828 64.2469C31.7622 63.9782 31.789 63.6938 31.3668 63.8416C31.0005 63.9692 30.7682 64.1439 30.9223 64.5739C31.0452 64.9165 31.1792 65.2546 31.2819 65.6017C31.7599 67.2611 31.7666 66.961 33.4061 66.9409ZM35.097 65.8861C35.6733 65.857 35.9212 65.3867 35.6286 64.8627C35.327 64.3208 35.1796 63.7296 35.0188 63.1384C34.9362 62.8361 34.8982 62.4263 34.38 62.6391C33.9913 62.7981 33.8573 62.9884 33.9467 63.4631C34.1008 64.2962 34.8334 64.8874 34.8312 65.7697C34.8289 65.8839 34.9786 65.9085 35.097 65.8861ZM36.4885 54.8752C36.3299 55.0857 35.6777 54.8484 35.8095 55.3254C36.053 56.1987 36.4416 57.0385 36.8481 57.8513C37.0358 58.2298 37.4334 58.0417 37.7394 57.9006C38.1526 57.7103 37.8064 57.4908 37.7438 57.2937C37.5093 56.557 36.9889 55.9322 36.8951 55.1372C36.8749 54.9402 36.7521 54.8506 36.4885 54.8752ZM29.5777 57.6341C30.1629 58.4067 30.3126 59.3315 30.7302 60.1355C30.9469 60.552 31.1881 60.4512 31.474 60.3728C31.8605 60.2654 31.7912 60.0549 31.6572 59.7413C31.3713 59.0785 31.1077 58.3977 30.9335 57.6991C30.8352 57.3049 30.6677 57.2557 30.3617 57.3475C30.1004 57.4214 29.8457 57.5333 29.5777 57.6341ZM41.7465 56.0845C41.3042 55.3836 41.0987 54.6065 40.8575 53.8407C40.7503 53.5003 40.5582 53.3346 40.174 53.4734C39.7653 53.619 39.6893 53.8474 39.8501 54.2415C40.1383 54.9559 40.4018 55.6814 40.6431 56.4137C40.7369 56.6981 40.891 56.669 41.0831 56.5861C41.3422 56.4719 41.704 56.4853 41.7465 56.0845ZM37.9493 54.3154C37.4311 54.3154 37.248 54.6222 37.4758 55.1216C37.7639 55.7531 38.0945 56.3689 38.233 57.0608C38.3112 57.446 38.5234 57.5692 38.8964 57.3833C39.2069 57.2288 39.5307 57.1325 39.256 56.6645C38.8897 56.0397 38.5837 55.3813 38.4318 54.6647C38.3737 54.3938 38.204 54.302 37.9493 54.3154ZM35.0344 55.5045C34.5118 55.5023 34.3107 55.8471 34.5051 56.3331C34.7731 57.0004 35.0523 57.6722 35.2355 58.3642C35.4052 59.0001 35.7492 58.5903 36.0038 58.5411C36.2473 58.4918 36.5734 58.4448 36.2786 58.0036C35.8765 57.399 35.6487 56.7048 35.4834 55.9927C35.432 55.762 35.4008 55.4664 35.0344 55.5045ZM28.8518 57.9991C28.347 57.9812 28.1995 58.2432 28.3693 58.718C28.615 59.3942 29.0662 59.9854 29.1779 60.7199C29.2605 61.2551 29.6313 61.0693 29.9485 60.9775C30.3014 60.8745 30.3483 60.6908 30.1875 60.3527C29.9038 59.7503 29.6849 59.1188 29.4258 58.5075C29.3208 58.2544 29.2114 57.9745 28.8518 57.9991ZM44.8535 54.8349C44.8825 54.5752 43.1492 52.4724 42.8901 52.4635C42.6935 52.4567 42.4858 52.4702 42.3741 52.6628C42.2491 52.8822 42.4434 53.0188 42.5439 53.1756C42.7539 53.5025 43.0978 53.8093 43.1447 54.1564C43.2095 54.6312 43.5892 54.7767 43.8059 55.0813C43.9779 55.3209 44.2593 55.2335 44.4961 55.1507C44.6524 55.0947 44.8088 55.023 44.8535 54.8349ZM32.1665 56.7473C32.0838 56.8123 31.9587 56.8795 31.8761 56.9825C31.4696 57.4953 31.6483 58.035 31.8426 58.5612C32.0213 59.0494 32.3049 59.4681 32.8678 59.5443C33.214 59.5913 33.4575 59.4525 33.223 59.0695C32.8254 58.4246 32.5082 57.755 32.3965 56.9981C32.3809 56.8839 32.3407 56.7876 32.1665 56.7473ZM45.088 59.3405C45.0969 60.2004 45.8675 61.0715 46.5734 61.1365C46.6672 61.1454 46.7967 61.1073 46.857 61.0402C46.9486 60.9416 46.8593 60.8297 46.7811 60.7513C46.2763 60.2295 46.1512 59.5353 45.9256 58.8859C45.8586 58.6933 45.9546 58.353 45.671 58.335C45.3493 58.3149 45.2533 58.6597 45.1505 58.9038C45.0813 59.0763 45.0947 59.2823 45.088 59.3405ZM33.94 59.3114C34.8602 58.3664 34.4783 56.763 33.3436 56.4495C33.1515 56.3958 32.9482 56.3263 32.812 56.5167C32.6869 56.6914 32.8634 56.8145 32.9482 56.9511C33.3793 57.661 33.7546 58.3955 33.94 59.3114Z" fill="white"/>
<path d="M40.2232 8.27664C39.7229 8.27664 39.2203 8.28111 38.72 8.2744C38.5502 8.27216 38.3604 8.23185 38.3269 8.03703C38.3 7.88027 38.4653 7.81085 38.586 7.74591C40.1093 6.92183 41.6795 6.21196 43.3436 5.71482C43.7814 5.58494 44.0293 5.8044 44.2125 6.16269C44.4425 6.60832 44.6704 7.05619 44.9071 7.49958C45.4834 8.56999 45.3539 9.06265 44.2616 9.67399C44.5296 9.71878 44.7418 9.73669 44.9429 9.79043C45.269 9.87777 45.3516 10.1599 45.3606 10.4443C45.3717 10.8183 45.0612 10.8205 44.8245 10.7892C44.237 10.7108 44.0204 11.031 43.9266 11.5304C43.826 12.0656 43.5491 12.3926 42.9572 12.3321C42.5663 12.2918 42.2558 12.453 41.9721 12.7016C41.5522 13.0688 41.1234 13.4271 40.7012 13.7899C40.0043 14.3901 39.8368 14.3677 39.2717 13.613C38.787 12.9614 38.8562 12.6187 39.5732 12.2156C40.2009 11.8618 40.9179 11.6804 41.4294 11.0937C41.1412 11.2505 40.862 11.4296 40.5605 11.5595C40.2031 11.7118 39.8055 11.9716 39.4638 11.9201C38.1794 11.7275 38.4966 10.4734 38.1392 9.67847C37.8935 9.12983 38.1928 8.68644 38.7825 8.54536C39.265 8.42219 39.7519 8.29231 40.2232 8.27664Z" fill="white"/>
</svg>
